<svg width="40" height="40" viewBox="0 0 40 40" fill="none" xmlns="http://www.w3.org/2000/svg">
<path d="M26.6668 13.3333C29.319 13.3333 31.8625 14.3868 33.7379 16.2622C35.6133 18.1375 36.6668 20.6811 36.6668 23.3333V34.9999H30.0002V23.3333C30.0002 22.4492 29.649 21.6014 29.0238 20.9762C28.3987 20.3511 27.5509 19.9999 26.6668 19.9999C25.7828 19.9999 24.9349 20.3511 24.3098 20.9762C23.6847 21.6014 23.3335 22.4492 23.3335 23.3333V34.9999H16.6668V23.3333C16.6668 20.6811 17.7204 18.1375 19.5958 16.2622C21.4711 14.3868 24.0147 13.3333 26.6668 13.3333Z" stroke="#1E1E1E" stroke-width="3.5" stroke-linecap="round" stroke-linejoin="round"/>
<path d="M10.0002 14.9999H3.3335V34.9999H10.0002V14.9999Z" stroke="#1E1E1E" stroke-width="3.5" stroke-linecap="round" stroke-linejoin="round"/>
<path d="M6.66683 9.99992C8.50778 9.99992 10.0002 8.50753 10.0002 6.66659C10.0002 4.82564 8.50778 3.33325 6.66683 3.33325C4.82588 3.33325 3.3335 4.82564 3.3335 6.66659C3.3335 8.50753 4.82588 9.99992 6.66683 9.99992Z" stroke="#1E1E1E" stroke-width="3.5" stroke-linecap="round" stroke-linejoin="round"/>
</svg>
